<svg width="246" height="50" viewBox="0 0 246 50" fill="none" xmlns="http://www.w3.org/2000/svg">
<g clip-path="url(#clip0_327_195)">
<path fill-rule="evenodd" clip-rule="evenodd" d="M51.8018 12.9639C52.8857 12.9639 53.9697 12.9639 55.0537 12.9639C55.9664 13.0756 56.8817 13.2322 57.7998 13.4336C58.532 13.5859 59.2306 13.8148 59.8955 14.1201C59.9826 14.2385 60.0789 14.2625 60.1846 14.1924C62.0329 14.9231 63.7192 15.9108 65.2432 17.1553C65.2565 17.2778 65.3168 17.3742 65.4238 17.4443C65.4527 17.4278 65.4647 17.4037 65.46 17.3721C66.2067 17.9743 66.8812 18.6488 67.4834 19.3955C67.4517 19.3908 67.4276 19.4028 67.4111 19.4316C67.5043 19.5619 67.6248 19.6462 67.7725 19.6846C69.1145 21.2704 70.1262 23.053 70.8076 25.0322C70.8245 25.2521 70.8967 25.4447 71.0244 25.6104C71.1095 25.7678 71.1817 25.9365 71.2412 26.1162C71.1961 26.1463 71.1721 26.1945 71.1689 26.2607C71.1868 26.3484 71.235 26.3966 71.3135 26.4053C71.6015 27.5327 71.8183 28.6649 71.9639 29.8018C71.9639 30.9098 71.9639 32.0179 71.9639 33.126C71.3338 38.7727 68.7322 43.2531 64.1592 46.5674C64.0683 46.5301 63.996 46.5782 63.9424 46.7119C62.0027 48.0906 59.8588 49.0421 57.5107 49.5664C56.7103 49.7293 55.9154 49.8618 55.126 49.9639C54.0179 49.9639 52.9098 49.9639 51.8018 49.9639C49.86 49.7554 47.9811 49.2737 46.165 48.5186C46.1745 48.4553 46.1504 48.407 46.0928 48.374C46.0256 48.2981 45.9775 48.2981 45.9482 48.374C44.9604 47.986 44.0451 47.4801 43.2021 46.8564C43.1127 46.6803 42.9922 46.6081 42.8408 46.6396C42.3782 46.3365 41.9447 45.9993 41.54 45.6279C41.5495 45.5745 41.5375 45.5263 41.5039 45.4834C41.454 45.3939 41.4179 45.3939 41.3955 45.4834C39.9794 44.335 38.7991 42.986 37.8545 41.4365C37.7624 41.1561 37.6299 40.8911 37.457 40.6416C37.4282 40.6581 37.4162 40.6822 37.4209 40.7139C37.0566 40.1781 36.7676 39.6 36.5537 38.9795C36.4788 38.6233 36.3584 38.3342 36.1924 38.1123C35.5444 36.5079 35.1349 34.8458 34.9639 33.126C34.9639 32.1143 34.9639 31.1025 34.9639 30.0908C35.1021 29.9073 35.1262 29.7145 35.0361 29.5127C35.6343 24.3935 37.9227 20.2262 41.9014 17.0107C42.0282 16.9694 42.1487 16.9092 42.2627 16.8301C42.3522 16.7802 42.3522 16.7441 42.2627 16.7217C45.0821 14.577 48.2618 13.3244 51.8018 12.9639ZM62.4971 19.7568C62.7153 19.9748 62.9562 20.1675 63.2197 20.335C64.8607 21.8199 66.1253 23.5783 67.0137 25.6104C67.0706 25.7307 67.0948 25.8511 67.0859 25.9717C60.955 23.3231 54.5836 22.5162 47.9717 23.5508C45.599 23.9206 43.3105 24.559 41.1064 25.4658C40.9473 25.4733 40.8027 25.5215 40.6729 25.6104C40.3834 25.7309 40.0944 25.8514 39.8057 25.9717C40.6813 23.6905 42.0544 21.7634 43.9248 20.1904C44.0211 20.1423 44.0934 20.07 44.1416 19.9736C48.478 16.6955 53.2475 15.8885 58.4502 17.5527C59.9149 18.0936 61.2639 18.8283 62.4971 19.7568ZM54.1865 28.79C54.2378 28.8554 54.31 28.8794 54.4033 28.8623C55.8827 29.6053 56.4247 30.7857 56.0293 32.4033C55.3033 33.8924 54.1351 34.4343 52.5244 34.0293C51.5328 33.6522 50.9547 32.9416 50.79 31.8975C50.746 31.8331 50.7219 31.7608 50.7178 31.6807C50.8873 29.536 52.0436 28.5725 54.1865 28.79ZM43.8525 34.4268C43.8766 34.499 43.9248 34.5472 43.9971 34.5713C44.5704 34.9995 45.1244 35.4572 45.6592 35.9443C45.7314 36.0648 45.8278 36.1611 45.9482 36.2334C46.8623 37.2923 47.7054 38.4004 48.4775 39.5576C48.4817 39.6378 48.5057 39.71 48.5498 39.7744C48.9034 40.3853 49.2166 41.0116 49.4893 41.6533C49.4934 41.7335 49.5174 41.8057 49.5615 41.8701C50.0579 43.1477 50.3229 44.4725 50.3564 45.8447C50.0089 45.8181 49.6717 45.7458 49.3447 45.6279C49.2484 45.6039 49.152 45.5797 49.0557 45.5557C48.5498 45.3629 48.0439 45.1703 47.5381 44.9775C47.3301 44.8616 47.1133 44.7652 46.8877 44.6885C42.086 42.0997 39.3881 38.0769 38.7939 32.6201C39.6647 32.6232 40.5078 32.7798 41.3232 33.0898C42.2137 33.4626 43.0568 33.9083 43.8525 34.4268ZM67.7725 34.9326C67.7773 35.0381 67.7532 35.1344 67.7002 35.2217C66.8604 38.3011 65.2224 40.8545 62.7861 42.8818C62.6898 42.93 62.6175 43.0023 62.5693 43.0986C60.7796 44.4329 58.7923 45.3723 56.6074 45.917C56.64 43.8915 57.1459 41.9885 58.125 40.208C58.4569 39.6159 58.8062 39.0377 59.1729 38.4736C59.2334 38.4489 59.2575 38.4008 59.2451 38.3291C59.7456 37.6955 60.2635 37.0692 60.7988 36.4502C61.5286 35.7318 62.2874 35.0573 63.0752 34.4268C63.1469 34.4392 63.195 34.4151 63.2197 34.3545C64.4398 33.4918 65.7888 32.9257 67.2666 32.6562C67.5547 32.6202 67.8437 32.6081 68.1338 32.6201C68.1068 33.4081 67.9864 34.179 67.7725 34.9326Z" fill="#7ABEFF"/>
<path opacity="0.976" fill-rule="evenodd" clip-rule="evenodd" d="M59.8955 14.1201C60.0009 14.1153 60.0973 14.1393 60.1846 14.1924C60.0789 14.2625 59.9826 14.2385 59.8955 14.1201Z" fill="#524CFE"/>
<path opacity="0.741" fill-rule="evenodd" clip-rule="evenodd" d="M42.2627 16.7217C42.3522 16.7441 42.3522 16.7802 42.2627 16.8301C42.1487 16.9092 42.0282 16.9694 41.9014 17.0107C41.9794 16.8631 42.0998 16.7668 42.2627 16.7217Z" fill="#DB83FF"/>
<path opacity="0.867" fill-rule="evenodd" clip-rule="evenodd" d="M65.2432 17.1553C65.3395 17.2035 65.4118 17.2757 65.46 17.3721C65.4647 17.4037 65.4527 17.4278 65.4238 17.4443C65.3168 17.3742 65.2565 17.2778 65.2432 17.1553Z" fill="#AF4FFE"/>
<path opacity="0.09" fill-rule="evenodd" clip-rule="evenodd" d="M67.4834 19.3955C67.6039 19.4678 67.7002 19.5641 67.7725 19.6846C67.6248 19.6462 67.5043 19.5619 67.4111 19.4317C67.4276 19.4028 67.4517 19.3908 67.4834 19.3955Z" fill="#9C4AFE"/>
<path opacity="0.082" fill-rule="evenodd" clip-rule="evenodd" d="M63.2197 20.335C62.9563 20.1675 62.7153 19.9748 62.4971 19.7568C62.4924 19.7252 62.5044 19.7011 62.5332 19.6846C62.8239 19.8921 63.0527 20.1089 63.2197 20.335Z" fill="#B37AFF"/>
<path opacity="0.114" fill-rule="evenodd" clip-rule="evenodd" d="M44.1416 19.9736C44.0934 20.07 44.0211 20.1423 43.9248 20.1904C43.9248 20.0459 43.9971 19.9736 44.1416 19.9736Z" fill="#B63BFE"/>
<path opacity="0.62" fill-rule="evenodd" clip-rule="evenodd" d="M70.8076 25.0322C70.9353 25.1979 71.0076 25.3905 71.0244 25.6104C70.8967 25.4447 70.8245 25.2521 70.8076 25.0322Z" fill="#7745FE"/>
<path opacity="0.882" fill-rule="evenodd" clip-rule="evenodd" d="M41.1064 25.4658C40.9752 25.6061 40.8307 25.6543 40.6729 25.6104C40.8027 25.5215 40.9473 25.4733 41.1064 25.4658Z" fill="#B366FF"/>
<path opacity="0.133" fill-rule="evenodd" clip-rule="evenodd" d="M39.8057 25.9717C39.7956 26.1044 39.7474 26.1285 39.6611 26.0439C39.6942 25.9863 39.7423 25.9622 39.8057 25.9717Z" fill="#724DFF"/>
<path opacity="0.09" fill-rule="evenodd" clip-rule="evenodd" d="M71.2412 26.1162C71.2364 26.2216 71.2604 26.318 71.3135 26.4053C71.235 26.3966 71.1868 26.3484 71.1689 26.2607C71.1721 26.1945 71.1961 26.1463 71.2412 26.1162Z" fill="#914AFE"/>
<path opacity="0.535" fill-rule="evenodd" clip-rule="evenodd" d="M54.4033 28.8623C54.31 28.8794 54.2378 28.8554 54.1865 28.79C54.1818 28.7584 54.1938 28.7343 54.2227 28.7178C54.2946 28.7587 54.3548 28.8069 54.4033 28.8623Z" fill="#DA49FE"/>
<path opacity="0.929" fill-rule="evenodd" clip-rule="evenodd" d="M35.0361 29.5127C35.1262 29.7145 35.1021 29.9073 34.9639 30.0908C34.9639 29.9945 34.9639 29.8981 34.9639 29.8018C35.0314 29.7246 35.0555 29.6282 35.0361 29.5127Z" fill="#B665FF"/>
<path opacity="0.882" fill-rule="evenodd" clip-rule="evenodd" d="M50.7177 31.6807C50.7219 31.7608 50.7459 31.8331 50.79 31.8975C50.6417 31.8575 50.6176 31.7852 50.7177 31.6807Z" fill="#DB53FF"/>
<path opacity="0.039" fill-rule="evenodd" clip-rule="evenodd" d="M63.2197 34.3545C63.195 34.4151 63.1469 34.4392 63.0752 34.4268C63.0435 34.4315 63.0194 34.4195 63.0029 34.3906C63.0691 34.3636 63.1294 34.3275 63.1836 34.2822C63.2124 34.2987 63.2244 34.3228 63.2197 34.3545Z" fill="#D24AFE"/>
<path opacity="0.725" fill-rule="evenodd" clip-rule="evenodd" d="M43.9971 34.5713C43.9248 34.5472 43.8766 34.499 43.8526 34.4268C43.8479 34.3951 43.8599 34.371 43.8887 34.3545C43.9489 34.4147 44.0092 34.475 44.0694 34.5352C44.0529 34.564 44.0287 34.576 43.9971 34.5713Z" fill="#B848FE"/>
<path opacity="0.992" fill-rule="evenodd" clip-rule="evenodd" d="M67.7725 34.9326C67.8176 34.9628 67.8416 35.011 67.8447 35.0771C67.8269 35.1648 67.7787 35.213 67.7002 35.2217C67.7532 35.1344 67.7773 35.0381 67.7725 34.9326Z" fill="#A236FE"/>
<path opacity="0.388" fill-rule="evenodd" clip-rule="evenodd" d="M45.9483 36.2334C45.8278 36.1611 45.7315 36.0648 45.6592 35.9443C45.6545 35.9127 45.6665 35.8885 45.6953 35.8721C45.8255 35.9652 45.9099 36.0857 45.9483 36.2334Z" fill="#B66CFF"/>
<path opacity="0.773" fill-rule="evenodd" clip-rule="evenodd" d="M36.5537 38.9795C36.378 38.7185 36.2576 38.4295 36.1924 38.1123C36.3584 38.3342 36.4788 38.6233 36.5537 38.9795Z" fill="#C778FF"/>
<path opacity="0.039" fill-rule="evenodd" clip-rule="evenodd" d="M59.2451 38.3291C59.2575 38.4008 59.2334 38.4489 59.1729 38.4736C59.1412 38.4783 59.1171 38.4663 59.1006 38.4375C59.1458 38.3833 59.182 38.323 59.209 38.2568C59.2378 38.2733 59.2498 38.2974 59.2451 38.3291Z" fill="#DF52FF"/>
<path opacity="0.137" fill-rule="evenodd" clip-rule="evenodd" d="M48.4775 39.5576C48.6135 39.6097 48.6376 39.682 48.5498 39.7744C48.5057 39.71 48.4817 39.6378 48.4775 39.5576Z" fill="#893BFF"/>
<path opacity="0.388" fill-rule="evenodd" clip-rule="evenodd" d="M37.8545 41.4365C37.6739 41.2202 37.5293 40.9793 37.4209 40.7139C37.4162 40.6822 37.4282 40.6581 37.4571 40.6416C37.63 40.8911 37.7625 41.1561 37.8545 41.4365Z" fill="#AF89FF"/>
<path opacity="0.137" fill-rule="evenodd" clip-rule="evenodd" d="M49.4893 41.6533C49.6253 41.7054 49.6493 41.7777 49.5615 41.8701C49.5174 41.8057 49.4934 41.7335 49.4893 41.6533Z" fill="#8234FE"/>
<path opacity="0.824" fill-rule="evenodd" clip-rule="evenodd" d="M62.7861 42.8819C62.8178 42.8772 62.8419 42.8891 62.8584 42.918C62.7882 43.025 62.6919 43.0853 62.5693 43.0986C62.6175 43.0023 62.6898 42.9301 62.7861 42.8819Z" fill="#C341FE"/>
<path opacity="0.467" fill-rule="evenodd" clip-rule="evenodd" d="M46.8877 44.6885C47.1133 44.7652 47.3301 44.8616 47.5381 44.9775C47.5338 45.0168 47.5097 45.0408 47.4658 45.0498C47.2441 44.9637 47.0514 44.8433 46.8877 44.6885Z" fill="#9773FF"/>
<path opacity="0.259" fill-rule="evenodd" clip-rule="evenodd" d="M41.54 45.628C41.4678 45.6039 41.4196 45.5557 41.3955 45.4834C41.4179 45.394 41.454 45.394 41.5039 45.4834C41.5375 45.5263 41.5495 45.5745 41.54 45.628Z" fill="#643AFF"/>
<path opacity="0.792" fill-rule="evenodd" clip-rule="evenodd" d="M49.0557 45.5557C49.152 45.5797 49.2484 45.6039 49.3447 45.6279C49.2271 45.7257 49.1307 45.7016 49.0557 45.5557Z" fill="#964EFF"/>
<path opacity="0.996" fill-rule="evenodd" clip-rule="evenodd" d="M43.2021 46.8564C43.0624 46.8124 42.9419 46.7401 42.8408 46.6396C42.9922 46.6081 43.1127 46.6803 43.2021 46.8564Z" fill="#D269FF"/>
<path opacity="0.043" fill-rule="evenodd" clip-rule="evenodd" d="M64.1592 46.5674C64.125 46.669 64.0527 46.7172 63.9424 46.7119C63.996 46.5782 64.0683 46.5301 64.1592 46.5674Z" fill="#7643FF"/>
<path opacity="0.133" fill-rule="evenodd" clip-rule="evenodd" d="M46.165 48.5186C46.0776 48.4874 46.0053 48.4392 45.9482 48.374C45.9775 48.2982 46.0256 48.2982 46.0928 48.374C46.1504 48.4071 46.1745 48.4553 46.165 48.5186Z" fill="#9542FE"/>
</g>
<path d="M25.7939 24.725C25.5588 23.9077 25.2286 23.1856 24.8032 22.5587C24.3777 21.9206 23.8572 21.3832 23.2414 20.9466C22.6369 20.4988 21.9428 20.1573 21.1591 19.9222C20.3866 19.6871 19.5302 19.5696 18.5898 19.5696C16.8321 19.5696 15.2872 20.0062 13.9549 20.8794C12.6339 21.7526 11.6039 23.0233 10.865 24.6914C10.1261 26.3483 9.75669 28.3747 9.75669 30.7705C9.75669 33.1662 10.1205 35.2038 10.8482 36.8831C11.5759 38.5624 12.6059 39.8442 13.9381 40.7287C15.2704 41.6019 16.8433 42.0385 18.6569 42.0385C20.3027 42.0385 21.7077 41.7474 22.872 41.1653C24.0475 40.5719 24.9431 39.7379 25.5588 38.6631C26.1858 37.5884 26.4992 36.3177 26.4992 34.8511L27.977 35.0694H19.1104V29.5949H33.5019V33.9275C33.5019 36.9503 32.8638 39.5476 31.5875 41.7194C30.3112 43.8801 28.5536 45.5482 26.3145 46.7237C24.0755 47.888 21.5117 48.4702 18.6234 48.4702C15.3991 48.4702 12.5667 47.7593 10.1261 46.3375C7.68556 44.9045 5.78237 42.8726 4.41654 40.2417C3.06191 37.5996 2.3846 34.4649 2.3846 30.8376C2.3846 28.05 2.78763 25.5646 3.59369 23.3816C4.41094 21.1873 5.55286 19.3289 7.01944 17.8063C8.48603 16.2838 10.1933 15.125 12.1413 14.3302C14.0893 13.5353 16.1996 13.1379 18.4722 13.1379C20.4202 13.1379 22.2338 13.4234 23.9131 13.9943C25.5924 14.5541 27.0814 15.3489 28.3801 16.3789C29.6899 17.4089 30.7591 18.6348 31.5875 20.0566C32.416 21.4672 32.9477 23.0233 33.1828 24.725H25.7939Z" fill="#79BFFF"/>
<path d="M199.794 24.725C199.559 23.9077 199.229 23.1856 198.803 22.5587C198.378 21.9206 197.857 21.3832 197.241 20.9466C196.637 20.4988 195.943 20.1573 195.159 19.9222C194.387 19.6871 193.53 19.5696 192.59 19.5696C190.832 19.5696 189.287 20.0062 187.955 20.8794C186.634 21.7526 185.604 23.0233 184.865 24.6914C184.126 26.3483 183.757 28.3747 183.757 30.7705C183.757 33.1662 184.121 35.2038 184.848 36.8831C185.576 38.5624 186.606 39.8442 187.938 40.7287C189.27 41.6019 190.843 42.0385 192.657 42.0385C194.303 42.0385 195.708 41.7474 196.872 41.1653C198.047 40.5719 198.943 39.7379 199.559 38.6631C200.186 37.5884 200.499 36.3177 200.499 34.8511L201.977 35.0694H193.11V29.5949H207.502V33.9275C207.502 36.9503 206.864 39.5476 205.588 41.7194C204.311 43.8801 202.554 45.5482 200.315 46.7237C198.075 47.888 195.512 48.4702 192.623 48.4702C189.399 48.4702 186.567 47.7593 184.126 46.3375C181.686 44.9045 179.782 42.8726 178.417 40.2417C177.062 37.5996 176.385 34.4649 176.385 30.8376C176.385 28.05 176.788 25.5646 177.594 23.3816C178.411 21.1873 179.553 19.3289 181.019 17.8063C182.486 16.2838 184.193 15.125 186.141 14.3302C188.089 13.5353 190.2 13.1379 192.472 13.1379C194.42 13.1379 196.234 13.4234 197.913 13.9943C199.592 14.5541 201.081 15.3489 202.38 16.3789C203.69 17.4089 204.759 18.6348 205.588 20.0566C206.416 21.4672 206.948 23.0233 207.183 24.725H199.794Z" fill="#79BFFF"/>
<path d="M88.5648 20.2061V24.2364H74.4756V20.2061H88.5648ZM78.254 14.0263H83.2751V38.4264C83.2751 39.4004 83.4206 40.1337 83.7117 40.6263C84.0028 41.1077 84.3778 41.4379 84.8368 41.617C85.307 41.785 85.8164 41.8689 86.365 41.8689C86.768 41.8689 87.1206 41.841 87.4229 41.785C87.7252 41.729 87.9603 41.6842 88.1282 41.6506L89.035 45.7985C88.744 45.9104 88.3297 46.0224 87.7924 46.1343C87.255 46.2575 86.5833 46.3247 85.7772 46.3359C84.4562 46.3582 83.2247 46.1231 82.0828 45.6306C80.9408 45.138 80.0172 44.3767 79.3119 43.3467C78.6066 42.3168 78.254 41.0237 78.254 39.4676V14.0263ZM101.885 46.5206C99.3438 46.5206 97.1551 45.9776 95.3191 44.8917C93.4943 43.7945 92.0837 42.2552 91.0873 40.2736C90.1021 38.2808 89.6095 35.9466 89.6095 33.271C89.6095 30.6289 90.1021 28.3003 91.0873 26.2851C92.0837 24.2699 93.4719 22.697 95.2519 21.5663C97.0432 20.4356 99.1367 19.8702 101.533 19.8702C102.988 19.8702 104.398 20.1109 105.764 20.5923C107.13 21.0737 108.356 21.8294 109.442 22.8593C110.528 23.8893 111.384 25.2271 112.011 26.8729C112.638 28.5074 112.952 30.4945 112.952 32.8343V34.6144H92.4475V30.8528H108.031C108.031 29.5317 107.763 28.3618 107.225 27.3431C106.688 26.3131 105.932 25.5014 104.958 24.9081C103.995 24.3147 102.865 24.0181 101.566 24.0181C100.155 24.0181 98.924 24.3651 97.8716 25.0592C96.8305 25.7421 96.0244 26.6378 95.4535 27.7461C94.8937 28.8432 94.6138 30.0355 94.6138 31.323V34.2617C94.6138 35.9858 94.9161 37.4524 95.5206 38.6615C96.1364 39.8706 96.9928 40.7942 98.09 41.4323C99.1871 42.0593 100.469 42.3727 101.936 42.3727C102.887 42.3727 103.755 42.2384 104.538 41.9697C105.322 41.6898 105.999 41.2756 106.57 40.727C107.141 40.1785 107.578 39.5011 107.88 38.6951L112.633 39.5515C112.252 40.9509 111.569 42.1768 110.584 43.2292C109.61 44.2703 108.384 45.082 106.906 45.6641C105.44 46.2351 103.766 46.5206 101.885 46.5206ZM122.955 46.571C121.321 46.571 119.843 46.2687 118.522 45.6641C117.201 45.0484 116.154 44.1584 115.382 42.9941C114.621 41.8298 114.24 40.4024 114.24 38.7119C114.24 37.2565 114.52 36.0586 115.08 35.1182C115.639 34.1778 116.395 33.4333 117.347 32.8847C118.298 32.3362 119.362 31.9219 120.537 31.642C121.713 31.3622 122.911 31.1495 124.131 31.0039C125.676 30.8248 126.93 30.6792 127.893 30.5673C128.855 30.4441 129.555 30.2482 129.992 29.9795C130.428 29.7109 130.647 29.2742 130.647 28.6697V28.5521C130.647 27.0856 130.232 25.9492 129.404 25.1432C128.587 24.3371 127.366 23.9341 125.743 23.9341C124.053 23.9341 122.72 24.3091 121.746 25.0592C120.784 25.7981 120.117 26.621 119.748 27.5278L115.029 26.453C115.589 24.8857 116.406 23.6206 117.481 22.6578C118.567 21.6838 119.815 20.9785 121.226 20.5419C122.636 20.0941 124.12 19.8702 125.676 19.8702C126.706 19.8702 127.797 19.9933 128.95 20.2396C130.115 20.4747 131.201 20.9114 132.208 21.5495C133.227 22.1876 134.061 23.1 134.71 24.2867C135.36 25.4622 135.684 26.9904 135.684 28.8712V46H130.781V42.4735H130.579C130.255 43.1228 129.768 43.7609 129.118 44.3879C128.469 45.0148 127.635 45.5354 126.616 45.9496C125.597 46.3638 124.377 46.571 122.955 46.571ZM124.047 42.5407C125.435 42.5407 126.622 42.2664 127.607 41.7178C128.603 41.1692 129.359 40.4527 129.874 39.5683C130.4 38.6727 130.663 37.7155 130.663 36.6967V33.3717C130.484 33.5508 130.137 33.7188 129.622 33.8755C129.118 34.021 128.542 34.1498 127.893 34.2617C127.243 34.3625 126.611 34.4577 125.995 34.5472C125.379 34.6256 124.864 34.6928 124.45 34.7487C123.476 34.8719 122.586 35.079 121.78 35.3701C120.985 35.6612 120.347 36.081 119.866 36.6295C119.395 37.1669 119.16 37.8834 119.16 38.779C119.16 40.0217 119.619 40.9621 120.537 41.6003C121.455 42.2272 122.625 42.5407 124.047 42.5407ZM139.298 46V20.2061H144.118V24.4043H144.437C144.974 22.9825 145.853 21.8742 147.074 21.0793C148.294 20.2732 149.755 19.8702 151.457 19.8702C153.181 19.8702 154.625 20.2732 155.789 21.0793C156.965 21.8854 157.832 22.9937 158.392 24.4043H158.661C159.276 23.0273 160.256 21.9301 161.599 21.1129C162.943 20.2844 164.544 19.8702 166.402 19.8702C168.742 19.8702 170.651 20.6035 172.129 22.0701C173.618 23.5367 174.362 25.7477 174.362 28.7033V46H169.341V29.1735C169.341 27.427 168.865 26.162 167.914 25.3783C166.962 24.5946 165.826 24.2028 164.505 24.2028C162.87 24.2028 161.599 24.7066 160.693 25.7141C159.786 26.7105 159.332 27.9924 159.332 29.5597V46H154.328V28.8544C154.328 27.455 153.892 26.3299 153.018 25.479C152.145 24.6282 151.009 24.2028 149.609 24.2028C148.658 24.2028 147.779 24.4547 146.973 24.9585C146.178 25.4511 145.534 26.1396 145.042 27.024C144.56 27.9084 144.32 28.9328 144.32 30.0971V46H139.298Z" fill="black"/>
<g clip-path="url(#clip1_327_195)">
<path opacity="0.999" fill-rule="evenodd" clip-rule="evenodd" d="M225.874 10.9639C226.934 10.9639 227.994 10.9639 229.054 10.9639C229.105 11.0292 229.177 11.0533 229.271 11.0361C229.375 11.8565 229.363 12.6755 229.234 13.4932C229.127 13.8762 228.922 14.1893 228.62 14.4326C228.498 14.446 228.401 14.5062 228.331 14.6133C228.348 14.6421 228.372 14.6541 228.403 14.6494C228.017 15.1082 227.583 15.5177 227.103 15.8779C225.139 14.4737 223.067 13.2332 220.888 12.1562C222.504 11.5321 224.166 11.1347 225.874 10.9639Z" fill="#7CBDFF"/>
<path opacity="0.999" fill-rule="evenodd" clip-rule="evenodd" d="M238.087 14.2881C237.997 14.3105 237.997 14.3466 238.087 14.3965C238.201 14.4756 238.321 14.5358 238.448 14.5771C238.862 14.8334 239.247 15.1345 239.604 15.4805C238.514 15.7229 237.43 15.9999 236.353 16.3115C236.235 16.2138 236.138 16.2378 236.063 16.3838C235.266 16.6898 234.495 17.0511 233.751 17.4678C233.747 17.4285 233.723 17.4044 233.679 17.3955C233.504 17.4577 233.36 17.5541 233.245 17.6846C232.564 18.0874 231.889 18.509 231.222 18.9492C231.125 18.9974 231.029 18.9974 230.933 18.9492C230.747 18.7517 230.555 18.5711 230.354 18.4072C230.354 18.2627 230.282 18.1904 230.138 18.1904C229.611 17.8078 229.105 17.3983 228.62 16.9619C228.814 16.7195 229.031 16.5027 229.271 16.3115C229.439 16.2874 229.536 16.1911 229.56 16.0225C230.899 14.7407 231.405 13.1749 231.077 11.3252C233.65 11.781 235.986 12.7687 238.087 14.2881Z" fill="#7BBDFF"/>
<path opacity="0.999" fill-rule="evenodd" clip-rule="evenodd" d="M224.646 16.3838C224.709 16.5504 224.805 16.5986 224.935 16.5283C225.164 16.6972 225.405 16.8538 225.657 16.998C225.425 17.1944 225.184 17.375 224.935 17.54C224.842 17.4522 224.77 17.4763 224.718 17.6123C223.43 18.4847 222.033 19.1472 220.526 19.5996C218.509 20.0368 216.485 20.4463 214.456 20.8281C213.409 21.0717 212.374 21.3487 211.349 21.6592C211.353 21.6275 211.341 21.6034 211.312 21.5869C211.241 21.6278 211.18 21.676 211.132 21.7314C210.961 21.885 210.768 21.9331 210.554 21.876C210.741 21.3823 210.982 20.9245 211.276 20.5029C211.272 20.5346 211.284 20.5587 211.312 20.5752C211.406 20.4707 211.418 20.3744 211.349 20.2861C212.803 17.7482 214.754 15.6766 217.202 14.0713C217.305 14.0562 217.401 14.0201 217.491 13.9629C217.581 13.913 217.581 13.8769 217.491 13.8545C217.884 13.5973 218.294 13.3564 218.72 13.1318C220.811 14.0323 222.786 15.1163 224.646 16.3838Z" fill="#7BBDFF"/>
<path opacity="0.992" fill-rule="evenodd" clip-rule="evenodd" d="M217.491 13.8545C217.581 13.8769 217.581 13.913 217.491 13.9629C217.401 14.0201 217.305 14.0562 217.202 14.0713C217.27 13.9647 217.366 13.8925 217.491 13.8545Z" fill="#9B4EFF"/>
<path opacity="0.804" fill-rule="evenodd" clip-rule="evenodd" d="M238.087 14.2881C238.25 14.3332 238.37 14.4295 238.448 14.5771C238.321 14.5358 238.201 14.4756 238.087 14.3965C237.997 14.3466 237.997 14.3105 238.087 14.2881Z" fill="#A271FF"/>
<path opacity="0.086" fill-rule="evenodd" clip-rule="evenodd" d="M228.62 14.4326C228.572 14.529 228.5 14.6012 228.403 14.6494C228.372 14.6541 228.348 14.6421 228.331 14.6133C228.401 14.5062 228.498 14.446 228.62 14.4326Z" fill="#694AFE"/>
<path opacity="0.741" fill-rule="evenodd" clip-rule="evenodd" d="M229.56 16.0225C229.536 16.1911 229.439 16.2874 229.271 16.3115C229.343 16.1911 229.439 16.0947 229.56 16.0225Z" fill="#DF49FE"/>
<path opacity="0.086" fill-rule="evenodd" clip-rule="evenodd" d="M236.353 16.3115C236.256 16.3356 236.16 16.3597 236.063 16.3838C236.138 16.2378 236.235 16.2138 236.353 16.3115Z" fill="#5A49FE"/>
<path opacity="0.043" fill-rule="evenodd" clip-rule="evenodd" d="M224.646 16.3838C224.758 16.4006 224.855 16.4488 224.935 16.5283C224.805 16.5986 224.709 16.5504 224.646 16.3838Z" fill="#8E41FF"/>
<path opacity="0.999" fill-rule="evenodd" clip-rule="evenodd" d="M245.313 24.5498C245.282 24.5451 245.258 24.5571 245.241 24.5859C245.273 24.7319 245.321 24.8162 245.386 24.8389C245.643 25.619 245.788 26.4139 245.819 27.2236C244.762 25.9371 243.557 24.817 242.206 23.8633C240.665 22.7915 238.979 22.4542 237.147 22.8516C236.434 22.9757 235.736 23.1564 235.052 23.3936C234.222 22.3284 233.33 21.3046 232.378 20.3223C232.814 20.0081 233.271 19.7311 233.751 19.4912C233.887 19.5108 233.983 19.4626 234.04 19.3467C235.693 18.2934 237.5 17.631 239.46 17.3594C240.084 17.2392 240.71 17.167 241.339 17.1426C243.257 19.2803 244.582 21.7494 245.313 24.5498Z" fill="#7BBDFF"/>
<path opacity="0.467" fill-rule="evenodd" clip-rule="evenodd" d="M233.751 17.4678C233.591 17.5598 233.422 17.632 233.245 17.6846C233.36 17.5541 233.504 17.4577 233.679 17.3955C233.723 17.4044 233.747 17.4285 233.751 17.4678Z" fill="#9470FF"/>
<path opacity="0.086" fill-rule="evenodd" clip-rule="evenodd" d="M224.935 17.54C224.87 17.5841 224.798 17.6082 224.718 17.6123C224.77 17.4763 224.842 17.4522 224.935 17.54Z" fill="#8A4BFE"/>
<path fill-rule="evenodd" clip-rule="evenodd" d="M227.464 21.5146C227.279 21.4993 227.135 21.5956 227.03 21.8037C223.413 24.5652 220.125 27.6967 217.166 31.1982C215.529 33.1758 214.18 35.3438 213.119 37.7021C212.806 38.4847 212.529 39.2796 212.288 40.0869C210.393 37.3394 209.285 34.3043 208.964 30.9814C208.964 29.9697 208.964 28.958 208.964 27.9463C209.083 26.7267 209.323 25.5223 209.687 24.333C210.771 23.7668 211.903 23.3211 213.083 22.9961C215.849 22.3754 218.619 21.7731 221.394 21.1895C222.569 20.786 223.701 20.2921 224.79 19.708C224.866 19.7188 224.938 19.7068 225.007 19.6719C225.096 19.622 225.096 19.5859 225.007 19.5635C225.746 19.1143 226.469 18.6326 227.175 18.1182C227.977 18.7157 228.748 19.354 229.487 20.0332C228.824 20.5453 228.149 21.0391 227.464 21.5146Z" fill="#7ABEFF"/>
<path opacity="0.945" fill-rule="evenodd" clip-rule="evenodd" d="M230.138 18.1904C230.282 18.1904 230.354 18.2627 230.354 18.4072C230.258 18.359 230.186 18.2868 230.138 18.1904Z" fill="#523FFE"/>
<path opacity="0.945" fill-rule="evenodd" clip-rule="evenodd" d="M234.04 19.3467C233.983 19.4626 233.887 19.5108 233.751 19.4912C233.824 19.4064 233.921 19.3582 234.04 19.3467Z" fill="#5F4EFF"/>
<path opacity="0.992" fill-rule="evenodd" clip-rule="evenodd" d="M225.007 19.5635C225.096 19.5859 225.096 19.622 225.007 19.6719C224.938 19.7068 224.866 19.7188 224.79 19.708C224.847 19.6429 224.919 19.5947 225.007 19.5635Z" fill="#7748FE"/>
<path opacity="0.882" fill-rule="evenodd" clip-rule="evenodd" d="M211.349 20.2861C211.418 20.3744 211.406 20.4707 211.313 20.5752C211.284 20.5587 211.272 20.5346 211.276 20.5029C211.281 20.4228 211.305 20.3505 211.349 20.2861Z" fill="#B843FF"/>
<path fill-rule="evenodd" clip-rule="evenodd" d="M232.378 25.1279C232.383 25.0963 232.371 25.0721 232.342 25.0557C232.267 25.1094 232.231 25.1817 232.233 25.2725C231.255 26.6002 230.545 28.0696 230.102 29.6807C229.15 33.5358 228.198 37.39 227.247 41.2432C227.099 41.2831 227.075 41.3554 227.175 41.46C226.634 43.6243 225.899 45.72 224.971 47.7471C223.99 47.7075 223.038 47.5147 222.116 47.1689C221.961 47.0844 221.792 47.0121 221.61 46.9521C221.566 46.9611 221.542 46.9852 221.538 47.0244C219.497 46.3297 217.643 45.318 215.974 43.9893C215.983 43.9359 215.971 43.8877 215.938 43.8447C215.888 43.7553 215.852 43.7553 215.829 43.8447C215.114 43.3108 214.452 42.7086 213.842 42.0381C213.941 40.6796 214.278 39.3788 214.854 38.1357C215.397 37.0003 216.011 35.9163 216.696 34.8838C216.837 34.8451 216.909 34.7488 216.913 34.5947C217.078 34.2856 217.271 33.9966 217.491 33.7275C217.487 33.7592 217.499 33.7833 217.527 33.7998C217.588 33.7396 217.648 33.6793 217.708 33.6191C217.692 33.5903 217.667 33.5783 217.636 33.583C218.446 32.4356 219.337 31.3516 220.31 30.3311C220.432 30.3177 220.528 30.2574 220.599 30.1504C220.582 30.1216 220.558 30.1096 220.526 30.1143C220.933 29.5869 221.391 29.1051 221.899 28.6689C221.953 28.6784 222.001 28.6663 222.044 28.6328C222.133 28.5829 222.133 28.5468 222.044 28.5244C222.647 27.9217 223.273 27.3436 223.923 26.79C224.091 26.766 224.188 26.6696 224.212 26.501C224.246 26.3994 224.318 26.3512 224.429 26.3564C224.601 26.2934 224.746 26.185 224.862 26.0312C224.846 26.0024 224.822 25.9904 224.79 25.9951C225.783 25.1009 226.819 24.2578 227.897 23.4658C227.893 23.4975 227.905 23.5216 227.934 23.5381C227.999 23.4513 228.083 23.391 228.187 23.3574C228.276 23.3076 228.276 23.2714 228.187 23.249C229.055 22.5748 229.946 21.9244 230.86 21.2979C231.823 22.1757 232.666 23.1512 233.39 24.2246C233.04 24.5139 232.703 24.815 232.378 25.1279Z" fill="#7ABEFF"/>
<path opacity="0.086" fill-rule="evenodd" clip-rule="evenodd" d="M211.349 21.6592C211.297 21.7245 211.225 21.7486 211.132 21.7314C211.18 21.676 211.241 21.6278 211.312 21.5869C211.341 21.6034 211.353 21.6275 211.349 21.6592Z" fill="#6247FE"/>
<path opacity="0.035" fill-rule="evenodd" clip-rule="evenodd" d="M227.464 21.5147C227.339 21.6388 227.195 21.7351 227.03 21.8037C227.135 21.5956 227.279 21.4993 227.464 21.5147Z" fill="#AF51FF"/>
<path opacity="0.553" fill-rule="evenodd" clip-rule="evenodd" d="M228.187 23.249C228.276 23.2714 228.276 23.3076 228.187 23.3574C228.083 23.391 227.999 23.4513 227.934 23.5381C227.905 23.5216 227.893 23.4975 227.897 23.4658C227.965 23.3593 228.062 23.287 228.187 23.249Z" fill="#9270FE"/>
<path fill-rule="evenodd" clip-rule="evenodd" d="M240.905 25.2002C240.874 25.1955 240.849 25.2075 240.833 25.2363C240.899 25.2634 240.959 25.2995 241.014 25.3447C241.043 25.3283 241.055 25.3041 241.05 25.2725C241.536 25.5537 241.994 25.8789 242.423 26.2481C243.68 27.4805 244.861 28.7692 245.964 30.1143C245.964 30.4756 245.964 30.8369 245.964 31.1982C245.664 34.0263 244.772 36.652 243.29 39.0752C243.295 39.0435 243.283 39.0194 243.254 39.0029C243.227 39.0691 243.191 39.1294 243.146 39.1836C243.162 39.2124 243.186 39.2244 243.218 39.2197C242.628 40.219 241.929 41.1344 241.122 41.9658C241.127 41.9342 241.115 41.91 241.086 41.8936C241.011 41.9473 240.975 42.0196 240.978 42.1104C240.883 42.2294 240.787 42.3498 240.688 42.4717C240.37 37.6171 239.347 32.9198 237.617 28.3799C237.093 27.2103 236.551 26.0541 235.991 24.9111C237.076 24.5858 238.184 24.4533 239.315 24.5137C239.905 24.6252 240.435 24.854 240.905 25.2002Z" fill="#7ABEFF"/>
<path opacity="0.541" fill-rule="evenodd" clip-rule="evenodd" d="M245.313 24.5498C245.381 24.627 245.405 24.7233 245.386 24.8389C245.321 24.8163 245.273 24.7319 245.241 24.586C245.258 24.5571 245.282 24.5451 245.313 24.5498Z" fill="#7E30FE"/>
<path opacity="0.137" fill-rule="evenodd" clip-rule="evenodd" d="M232.378 25.1279C232.354 25.2002 232.306 25.2484 232.233 25.2725C232.231 25.1817 232.267 25.1094 232.342 25.0557C232.371 25.0721 232.383 25.0963 232.378 25.1279Z" fill="#9E4EFF"/>
<path opacity="0.635" fill-rule="evenodd" clip-rule="evenodd" d="M240.905 25.2002C240.977 25.1878 241.025 25.2119 241.05 25.2725C241.055 25.3041 241.043 25.3282 241.014 25.3447C240.959 25.2995 240.899 25.2634 240.833 25.2363C240.849 25.2075 240.874 25.1955 240.905 25.2002Z" fill="#BE52FE"/>
<path fill-rule="evenodd" clip-rule="evenodd" d="M235.702 28.5244C235.694 28.7207 235.766 28.8652 235.919 28.958C236.222 29.7232 236.511 30.4941 236.786 31.2705C236.686 31.3751 236.71 31.4473 236.858 31.4873C237.109 32.2728 237.326 33.0677 237.509 33.8721C237.421 33.9645 237.445 34.0368 237.581 34.0889C238.388 37.3657 238.834 40.6899 238.918 44.0615C237.366 45.2533 235.668 46.1928 233.823 46.8799C233.731 46.7921 233.659 46.8161 233.606 46.9521C232.145 47.4658 230.652 47.8031 229.126 47.9639C228.355 47.9639 227.584 47.9639 226.813 47.9639C227.96 45.1756 228.875 42.3092 229.56 39.3643C230.227 36.5951 230.889 33.825 231.547 31.0537C231.835 29.8629 232.257 28.7307 232.812 27.6572C232.959 27.5553 233.031 27.4107 233.028 27.2236C233.333 26.63 233.766 26.1482 234.329 25.7783C234.897 26.6372 235.354 27.5526 235.702 28.5244Z" fill="#7ABEFF"/>
<path opacity="0.98" fill-rule="evenodd" clip-rule="evenodd" d="M224.79 25.9951C224.822 25.9904 224.846 26.0024 224.862 26.0313C224.746 26.185 224.601 26.2934 224.429 26.3565C224.525 26.2119 224.646 26.0915 224.79 25.9951Z" fill="#A26EFF"/>
<path opacity="0.914" fill-rule="evenodd" clip-rule="evenodd" d="M224.212 26.501C224.188 26.6696 224.091 26.766 223.923 26.79C223.995 26.6696 224.091 26.5732 224.212 26.501Z" fill="#B13CFE"/>
<path opacity="0.635" fill-rule="evenodd" clip-rule="evenodd" d="M233.028 27.2236C233.031 27.4107 232.959 27.5553 232.812 27.6572C232.847 27.4896 232.919 27.3451 233.028 27.2236Z" fill="#9372FF"/>
<path opacity="0.741" fill-rule="evenodd" clip-rule="evenodd" d="M222.044 28.5244C222.133 28.5468 222.133 28.5829 222.044 28.6328C222.001 28.6663 221.953 28.6784 221.899 28.6689C221.923 28.5967 221.972 28.5485 222.044 28.5244Z" fill="#D54AFE"/>
<path opacity="0.306" fill-rule="evenodd" clip-rule="evenodd" d="M235.702 28.5244C235.801 28.6509 235.873 28.7954 235.919 28.958C235.766 28.8652 235.694 28.7207 235.702 28.5244Z" fill="#966DFF"/>
<path opacity="0.851" fill-rule="evenodd" clip-rule="evenodd" d="M220.526 30.1143C220.558 30.1096 220.582 30.1216 220.599 30.1504C220.528 30.2574 220.432 30.3177 220.31 30.3311C220.358 30.2347 220.43 30.1625 220.526 30.1143Z" fill="#734FFE"/>
<path opacity="0.678" fill-rule="evenodd" clip-rule="evenodd" d="M236.786 31.2705C236.79 31.3507 236.814 31.4229 236.858 31.4873C236.71 31.4473 236.686 31.3751 236.786 31.2705Z" fill="#8E4EFE"/>
<path opacity="0.729" fill-rule="evenodd" clip-rule="evenodd" d="M217.636 33.583C217.667 33.5783 217.692 33.5903 217.708 33.6192C217.648 33.6794 217.588 33.7396 217.527 33.7998C217.499 33.7833 217.487 33.7592 217.491 33.7276C217.515 33.6553 217.563 33.6071 217.636 33.583Z" fill="#5A4BFE"/>
<path opacity="0.98" fill-rule="evenodd" clip-rule="evenodd" d="M237.509 33.8721C237.553 33.9365 237.577 34.0087 237.581 34.0889C237.445 34.0368 237.421 33.9645 237.509 33.8721Z" fill="#CA53FF"/>
<path opacity="0.851" fill-rule="evenodd" clip-rule="evenodd" d="M216.913 34.5947C216.909 34.7488 216.837 34.8451 216.696 34.8838C216.734 34.7588 216.807 34.6624 216.913 34.5947Z" fill="#9B3FFF"/>
<path opacity="0.043" fill-rule="evenodd" clip-rule="evenodd" d="M243.29 39.0752C243.302 39.1469 243.278 39.195 243.218 39.2197C243.186 39.2244 243.162 39.2124 243.146 39.1836C243.191 39.1294 243.227 39.0691 243.254 39.0029C243.283 39.0194 243.295 39.0435 243.29 39.0752Z" fill="#4C3CFE"/>
<path opacity="0.808" fill-rule="evenodd" clip-rule="evenodd" d="M227.247 41.2432C227.203 41.3076 227.179 41.3798 227.175 41.46C227.075 41.3554 227.099 41.2831 227.247 41.2432Z" fill="#AD4EFE"/>
<path opacity="0.325" fill-rule="evenodd" clip-rule="evenodd" d="M241.122 41.9658C241.098 42.0381 241.05 42.0863 240.978 42.1104C240.975 42.0196 241.011 41.9473 241.086 41.8936C241.115 41.91 241.127 41.9342 241.122 41.9658Z" fill="#5F37FE"/>
<path opacity="0.239" fill-rule="evenodd" clip-rule="evenodd" d="M215.974 43.9893C215.901 43.9652 215.853 43.917 215.829 43.8447C215.852 43.7553 215.888 43.7553 215.938 43.8447C215.971 43.8877 215.983 43.9359 215.974 43.9893Z" fill="#C33FFE"/>
<path opacity="0.043" fill-rule="evenodd" clip-rule="evenodd" d="M233.823 46.8799C233.759 46.9239 233.687 46.948 233.606 46.9521C233.659 46.8161 233.731 46.7921 233.823 46.8799Z" fill="#9143FE"/>
<path opacity="0.62" fill-rule="evenodd" clip-rule="evenodd" d="M221.538 47.0244C221.542 46.9852 221.566 46.9611 221.61 46.9521C221.792 47.0121 221.961 47.0844 222.116 47.1689C221.911 47.1646 221.718 47.1165 221.538 47.0244Z" fill="#AB62FF"/>
</g>
<defs>
<clipPath id="clip0_327_195">
<rect width="37" height="37" fill="white" transform="translate(35 13)"/>
</clipPath>
<clipPath id="clip1_327_195">
<rect width="37" height="37" fill="white" transform="translate(209 11)"/>
</clipPath>
</defs>
</svg>
