<svg width="244" height="48" viewBox="0 0 244 48" fill="none" xmlns="http://www.w3.org/2000/svg">
<g clip-path="url(#clip0_414_122)">
<path d="M25.7939 24.2103C25.5588 23.393 25.2286 22.6709 24.8032 22.044C24.3777 21.4059 23.8572 20.8685 23.2414 20.4319C22.6369 19.9841 21.9428 19.6426 21.1591 19.4075C20.3866 19.1724 19.5302 19.0549 18.5898 19.0549C16.8321 19.0549 15.2872 19.4915 13.9549 20.3647C12.6339 21.2379 11.6039 22.5086 10.865 24.1767C10.1261 25.8336 9.75673 27.86 9.75673 30.2557C9.75673 32.6515 10.1205 34.6891 10.8482 36.3684C11.5759 38.0477 12.6059 39.3295 13.9381 40.214C15.2704 41.0872 16.8433 41.5238 18.6569 41.5238C20.3027 41.5238 21.7077 41.2327 22.872 40.6506C24.0475 40.0572 24.9431 39.2232 25.5588 38.1484C26.1858 37.0737 26.4992 35.803 26.4992 34.3364L27.977 34.5547H19.1104V29.0802H33.5019V33.4128C33.5019 36.4355 32.8638 39.0328 31.5875 41.2047C30.3112 43.3654 28.5536 45.0335 26.3145 46.209C24.0755 47.3733 21.5117 47.9555 18.6234 47.9555C15.3991 47.9555 12.5667 47.2446 10.1261 45.8228C7.6856 44.3898 5.78241 42.3578 4.41658 39.727C3.06195 37.0849 2.38464 33.9502 2.38464 30.3229C2.38464 27.5353 2.78767 25.0499 3.59373 22.8669C4.41098 20.6726 5.5529 18.8142 7.01948 17.2916C8.48607 15.769 10.1933 14.6103 12.1413 13.8155C14.0893 13.0206 16.1996 12.6232 18.4722 12.6232C20.4202 12.6232 22.2338 12.9086 23.9131 13.4796C25.5924 14.0394 27.0814 14.8342 28.3801 15.8642C29.6899 16.8942 30.7591 18.1201 31.5875 19.5419C32.416 20.9525 32.9477 22.5086 33.1828 24.2103H25.7939Z" fill="#00AFF5"/>
<path d="M199.187 24.2103C198.951 23.393 198.621 22.6709 198.196 22.044C197.77 21.4059 197.25 20.8685 196.634 20.4319C196.029 19.9841 195.335 19.6426 194.552 19.4075C193.779 19.1724 192.923 19.0549 191.982 19.0549C190.225 19.0549 188.68 19.4915 187.348 20.3647C186.026 21.2379 184.996 22.5086 184.258 24.1767C183.519 25.8336 183.149 27.86 183.149 30.2557C183.149 32.6515 183.513 34.6891 184.241 36.3684C184.969 38.0477 185.998 39.3295 187.331 40.214C188.663 41.0872 190.236 41.5238 192.05 41.5238C193.695 41.5238 195.1 41.2327 196.265 40.6506C197.44 40.0572 198.336 39.2232 198.951 38.1484C199.578 37.0737 199.892 35.803 199.892 34.3364L201.37 34.5547H192.503V29.0802H206.894V33.4128C206.894 36.4355 206.256 39.0328 204.98 41.2047C203.704 43.3654 201.946 45.0335 199.707 46.209C197.468 47.3733 194.904 47.9555 192.016 47.9555C188.792 47.9555 185.959 47.2446 183.519 45.8228C181.078 44.3898 179.175 42.3578 177.809 39.727C176.454 37.0849 175.777 33.9502 175.777 30.3229C175.777 27.5353 176.18 25.0499 176.986 22.8669C177.804 20.6726 178.945 18.8142 180.412 17.2916C181.879 15.769 183.586 14.6103 185.534 13.8155C187.482 13.0206 189.592 12.6232 191.865 12.6232C193.813 12.6232 195.626 12.9086 197.306 13.4796C198.985 14.0394 200.474 14.8342 201.773 15.8642C203.082 16.8942 204.152 18.1201 204.98 19.5419C205.809 20.9525 206.34 22.5086 206.575 24.2103H199.187Z" fill="#00AFF5"/>
<path d="M86.5648 20.2061V24.2364H72.4756V20.2061H86.5648ZM76.254 14.0263H81.2751V38.4264C81.2751 39.4004 81.4206 40.1337 81.7117 40.6263C82.0028 41.1077 82.3778 41.4379 82.8368 41.617C83.307 41.785 83.8164 41.8689 84.365 41.8689C84.768 41.8689 85.1206 41.841 85.4229 41.785C85.7252 41.729 85.9603 41.6842 86.1282 41.6506L87.035 45.7985C86.744 45.9104 86.3297 46.0224 85.7924 46.1343C85.255 46.2575 84.5833 46.3247 83.7772 46.3359C82.4562 46.3582 81.2247 46.1231 80.0828 45.6306C78.9408 45.138 78.0172 44.3767 77.3119 43.3467C76.6066 42.3168 76.254 41.0237 76.254 39.4676V14.0263ZM99.8852 46.5206C97.3438 46.5206 95.1551 45.9776 93.3191 44.8917C91.4943 43.7945 90.0837 42.2552 89.0873 40.2736C88.1021 38.2808 87.6095 35.9466 87.6095 33.271C87.6095 30.6289 88.1021 28.3003 89.0873 26.2851C90.0837 24.2699 91.4719 22.697 93.2519 21.5663C95.0432 20.4356 97.1367 19.8702 99.5325 19.8702C100.988 19.8702 102.398 20.1109 103.764 20.5923C105.13 21.0737 106.356 21.8294 107.442 22.8593C108.528 23.8893 109.384 25.2271 110.011 26.8729C110.638 28.5074 110.952 30.4945 110.952 32.8343V34.6144H90.4475V30.8528H106.031C106.031 29.5317 105.763 28.3618 105.225 27.3431C104.688 26.3131 103.932 25.5014 102.958 24.9081C101.995 24.3147 100.865 24.0181 99.5661 24.0181C98.1555 24.0181 96.924 24.3651 95.8716 25.0592C94.8305 25.7421 94.0244 26.6378 93.4535 27.7461C92.8937 28.8432 92.6138 30.0355 92.6138 31.323V34.2617C92.6138 35.9858 92.9161 37.4524 93.5206 38.6615C94.1364 39.8706 94.9928 40.7942 96.09 41.4323C97.1871 42.0593 98.469 42.3727 99.9355 42.3727C100.887 42.3727 101.755 42.2384 102.538 41.9697C103.322 41.6898 103.999 41.2756 104.57 40.727C105.141 40.1785 105.578 39.5011 105.88 38.6951L110.633 39.5515C110.252 40.9509 109.569 42.1768 108.584 43.2292C107.61 44.2703 106.384 45.082 104.906 45.6641C103.44 46.2351 101.766 46.5206 99.8852 46.5206ZM120.955 46.571C119.321 46.571 117.843 46.2687 116.522 45.6641C115.201 45.0484 114.154 44.1584 113.382 42.9941C112.621 41.8298 112.24 40.4024 112.24 38.7119C112.24 37.2565 112.52 36.0586 113.08 35.1182C113.639 34.1778 114.395 33.4333 115.347 32.8847C116.298 32.3362 117.362 31.9219 118.537 31.642C119.713 31.3622 120.911 31.1495 122.131 31.0039C123.676 30.8248 124.93 30.6792 125.893 30.5673C126.855 30.4441 127.555 30.2482 127.992 29.9795C128.428 29.7109 128.647 29.2742 128.647 28.6697V28.5521C128.647 27.0856 128.232 25.9492 127.404 25.1432C126.587 24.3371 125.366 23.9341 123.743 23.9341C122.053 23.9341 120.72 24.3091 119.746 25.0592C118.784 25.7981 118.117 26.621 117.748 27.5278L113.029 26.453C113.589 24.8857 114.406 23.6206 115.481 22.6578C116.567 21.6838 117.815 20.9785 119.226 20.5419C120.636 20.0941 122.12 19.8702 123.676 19.8702C124.706 19.8702 125.797 19.9933 126.95 20.2396C128.115 20.4747 129.201 20.9114 130.208 21.5495C131.227 22.1876 132.061 23.1 132.71 24.2867C133.36 25.4622 133.684 26.9904 133.684 28.8712V46H128.781V42.4735H128.579C128.255 43.1228 127.768 43.7609 127.118 44.3879C126.469 45.0148 125.635 45.5354 124.616 45.9496C123.597 46.3638 122.377 46.571 120.955 46.571ZM122.047 42.5407C123.435 42.5407 124.622 42.2664 125.607 41.7178C126.603 41.1692 127.359 40.4527 127.874 39.5683C128.4 38.6727 128.663 37.7155 128.663 36.6967V33.3717C128.484 33.5508 128.137 33.7188 127.622 33.8755C127.118 34.021 126.542 34.1498 125.893 34.2617C125.243 34.3625 124.611 34.4577 123.995 34.5472C123.379 34.6256 122.864 34.6928 122.45 34.7487C121.476 34.8719 120.586 35.079 119.78 35.3701C118.985 35.6612 118.347 36.081 117.866 36.6295C117.395 37.1669 117.16 37.8834 117.16 38.779C117.16 40.0217 117.619 40.9621 118.537 41.6003C119.455 42.2272 120.625 42.5407 122.047 42.5407ZM137.298 46V20.2061H142.118V24.4043H142.437C142.974 22.9825 143.853 21.8742 145.074 21.0793C146.294 20.2732 147.755 19.8702 149.457 19.8702C151.181 19.8702 152.625 20.2732 153.789 21.0793C154.965 21.8854 155.832 22.9937 156.392 24.4043H156.661C157.276 23.0273 158.256 21.9301 159.599 21.1129C160.943 20.2844 162.544 19.8702 164.402 19.8702C166.742 19.8702 168.651 20.6035 170.129 22.0701C171.618 23.5367 172.362 25.7477 172.362 28.7033V46H167.341V29.1735C167.341 27.427 166.865 26.162 165.914 25.3783C164.962 24.5946 163.826 24.2028 162.505 24.2028C160.87 24.2028 159.599 24.7066 158.693 25.7141C157.786 26.7105 157.332 27.9924 157.332 29.5597V46H152.328V28.8544C152.328 27.455 151.892 26.3299 151.018 25.479C150.145 24.6282 149.009 24.2028 147.609 24.2028C146.658 24.2028 145.779 24.4547 144.973 24.9585C144.178 25.4511 143.534 26.1396 143.042 27.024C142.56 27.9084 142.32 28.9328 142.32 30.0971V46H137.298Z" fill="black"/>
<path opacity="0.998" fill-rule="evenodd" clip-rule="evenodd" d="M225.404 11.2246C226.122 11.2122 226.84 11.2246 227.557 11.2617C229.237 12.0327 230.709 13.0841 231.973 14.416C232.552 15.0884 232.75 15.8554 232.566 16.7168C232.536 16.7507 232.499 16.7755 232.455 16.791C228.342 14.371 223.913 13.4185 219.17 13.9336C218.37 14.0439 217.591 14.2295 216.832 14.4902C216.82 14.4655 216.807 14.4407 216.795 14.416C219.386 12.6013 222.255 11.5375 225.404 11.2246Z" fill="#11AAEC"/>
<path opacity="0.999" fill-rule="evenodd" clip-rule="evenodd" d="M230.525 11.6699C234.095 12.3108 237.15 13.9436 239.691 16.5684C238.85 17.8082 237.885 18.971 236.797 20.0566C235.797 19.1307 234.733 18.2896 233.605 17.5332C234.026 16.3688 233.902 15.2555 233.234 14.1934C232.681 13.3677 232.001 12.6626 231.193 12.0781C230.967 11.9404 230.744 11.8043 230.525 11.6699Z" fill="#10ABED"/>
<path opacity="0.999" fill-rule="evenodd" clip-rule="evenodd" d="M220.283 15.0098C224.445 14.8132 228.304 15.778 231.861 17.9043C231.393 18.4114 230.824 18.7701 230.154 18.9805C229.473 19.2001 228.781 19.3734 228.076 19.5C225.161 19.8346 222.242 20.1315 219.318 20.3906C216.792 20.626 214.417 21.3434 212.193 22.543C211.28 23.0839 210.476 23.7643 209.781 24.584C210.385 21.966 211.56 19.6405 213.307 17.6074C215.383 16.0743 217.709 15.2084 220.283 15.0098Z" fill="#0CACF0"/>
<path opacity="0.999" fill-rule="evenodd" clip-rule="evenodd" d="M240.471 17.5332C240.545 17.5268 240.606 17.5516 240.656 17.6074C242.301 19.6269 243.463 21.903 244.145 24.4356C244.194 24.5593 244.194 24.6829 244.145 24.8066C242.97 23.2029 241.424 22.6463 239.506 23.1367C238.928 22.3853 238.322 21.6555 237.688 20.9473C237.638 20.8978 237.638 20.8483 237.688 20.7988C238.687 19.7634 239.614 18.6748 240.471 17.5332Z" fill="#12AAEC"/>
<path fill-rule="evenodd" clip-rule="evenodd" d="M232.9 18.498C234.022 19.1741 235.037 19.9905 235.943 20.9473C231.48 25.4508 226.903 29.8174 222.213 34.0469C219.684 36.2878 217.086 38.4401 214.42 40.5039C214.196 40.6524 213.973 40.7761 213.752 40.875C210.517 37.2065 209.02 32.9142 209.262 27.998C210.122 25.5299 211.767 23.8105 214.197 22.8398C215.682 22.2583 217.216 21.8625 218.799 21.6523C221.392 21.3599 223.99 21.1126 226.592 20.9102C228.325 20.7798 229.983 20.3593 231.565 19.6484C232.09 19.3582 232.535 18.9748 232.9 18.498Z" fill="#05AEF2"/>
<path fill-rule="evenodd" clip-rule="evenodd" d="M236.76 21.7637C237.408 22.3629 237.977 23.0309 238.467 23.7676C237.35 24.9115 236.62 26.2722 236.277 27.8496C236.11 28.5381 235.961 29.2309 235.832 29.9277C235.474 32.511 235.053 35.0839 234.57 37.6465C234.151 39.921 233.285 41.9991 231.973 43.8809C229.802 46.4762 227.068 47.3297 223.771 46.4414C220.318 45.7725 217.312 44.251 214.754 41.877C214.698 41.7927 214.711 41.7185 214.791 41.6543C218.367 38.9487 221.806 36.0666 225.107 33.0078C229.051 29.3237 232.935 25.5756 236.76 21.7637Z" fill="#06ADF2"/>
<path opacity="0.999" fill-rule="evenodd" clip-rule="evenodd" d="M240.248 24.1387C241.154 24.0062 241.946 24.2412 242.623 24.8437C243.439 25.6726 244.12 26.6003 244.664 27.6269C244.958 31.4791 244.092 35.0416 242.066 38.3144C243.261 34.2206 243.014 30.2128 241.324 26.291C240.962 25.5665 240.603 24.849 240.248 24.1387Z" fill="#16A9E9"/>
<path fill-rule="evenodd" clip-rule="evenodd" d="M239.061 24.8066C239.126 24.7969 239.175 24.8216 239.209 24.8808C242.545 30.5809 242.458 36.2215 238.949 41.8027C238.209 42.7653 237.306 43.5446 236.24 44.1406C234.715 45.0857 233.082 45.7537 231.342 46.1445C233.096 44.6053 234.32 42.7127 235.016 40.4668C235.43 39.2039 235.752 37.9175 235.98 36.6074C236.326 34.5579 236.648 32.5045 236.945 30.4472C237.163 28.6552 237.708 26.9728 238.578 25.4004C238.757 25.2138 238.918 25.0158 239.061 24.8066Z" fill="#0BACEF"/>
<g clip-path="url(#clip1_414_122)">
<path fill-rule="evenodd" clip-rule="evenodd" d="M51.3477 11.9648C52.4023 11.9648 53.457 11.9648 54.5117 11.9648C61.5615 12.8466 66.5889 16.5028 69.5938 22.9336C70.3064 24.6828 70.7634 26.4874 70.9648 28.3477C70.9648 29.4258 70.9648 30.5039 70.9648 31.582C70.1993 37.8851 67.0821 42.6312 61.6133 45.8203C59.4005 46.9942 57.0567 47.709 54.582 47.9648C53.5039 47.9648 52.4258 47.9648 51.3477 47.9648C45.0446 47.1993 40.2985 44.0821 37.1094 38.6133C35.9355 36.4005 35.2207 34.0567 34.9648 31.582C34.9648 30.5039 34.9648 29.4258 34.9648 28.3477C35.7304 22.0446 38.8476 17.2986 44.3164 14.1094C46.5292 12.9355 48.8729 12.2207 51.3477 11.9648ZM51.6992 15.6211C57.6484 15.3668 62.2071 17.734 65.375 22.7227C65.7185 23.3385 65.9998 23.9713 66.2188 24.6211C61.0248 22.3489 55.5991 21.47 49.9414 21.9844C46.3789 22.2861 42.9687 23.165 39.7109 24.6211C41.5043 20.2504 44.6801 17.4028 49.2383 16.0781C50.0609 15.883 50.8812 15.7306 51.6992 15.6211ZM52.6133 27.293C54.4148 27.2899 55.4225 28.1805 55.6367 29.9648C55.4727 31.582 54.582 32.4727 52.9648 32.6367C51.3477 32.4727 50.457 31.582 50.293 29.9648C50.4201 28.5024 51.1935 27.6118 52.6133 27.293ZM38.6914 31.0898C40.1045 31.1272 41.417 31.5139 42.6289 32.25C46.2189 34.5293 48.5743 37.7285 49.6953 41.8477C49.8663 42.5407 49.9484 43.2439 49.9414 43.957C45.1203 42.818 41.7102 39.982 39.7109 35.4492C39.1273 34.0522 38.7874 32.599 38.6914 31.0898ZM66.3945 31.0898C66.6758 31.0898 66.957 31.0898 67.2383 31.0898C66.6034 36.7032 63.7441 40.7228 58.6602 43.1484C57.7985 43.4982 56.9196 43.7911 56.0234 44.0273C56.01 42.6412 56.2678 41.3053 56.7969 40.0195C58.0749 36.8669 60.1257 34.3474 62.9492 32.4609C64.0259 31.8018 65.1743 31.3447 66.3945 31.0898Z" fill="#06ADF2"/>
</g>
</g>
<defs>
<clipPath id="clip0_414_122">
<rect width="244" height="48" fill="white"/>
</clipPath>
<clipPath id="clip1_414_122">
<rect width="36" height="36" fill="white" transform="translate(35 12)"/>
</clipPath>
</defs>
</svg>
